# xmcd
#
# Track frame offsets: 
#        150
#        14400
#        33319
#        50208
#        64232
#        77984
#        91060
#        104122
#        125455
#        142894
#        156916
#        171412
#
# Disc length: 2532 seconds
#
# Revision: 1
# Processed by: cddbd v1.5.2PL0 Copyright (c) Steve Scherf et al.
# Submitted via: ExactAudioCopy v1.0b4
#
DISCID=a809e20c
DTITLE=The Nighthawks - All You Gotta Do
DYEAR=2017
DGENRE=Blues
TTITLE0=That's All You Gotta Do
TTITLE1=When I Go Away
TTITLE2=Baby, I Want To Be Loved
TTITLE3=Let's Burn Down The Cornfield
TTITLE4=Another Day
TTITLE5=VooDoo Doll
TTITLE6=Ninety Nine
TTITLE7=Three Times Your Fool
TTITLE8=Isn't That So
TTITLE9=Snake Drive
TTITLE10=Blues For Brother John
TTITLE11=Dirty Water
EXTD=
EXTT0=
EXTT1=
EXTT2=
EXTT3=
EXTT4=
EXTT5=
EXTT6=
EXTT7=
EXTT8=
EXTT9=
EXTT10=
EXTT11=
PLAYORDER=
